/* XPM */
static char *_33421ad468c4fb5abd641d20ced17691x3x5w9tKWkhFxfZ[] = {
/* columns rows colors chars-per-pixel */
"20 20 63 1 ",
"  c #486790",
". c #291911",
"X c #2E1C13",
"o c #301E14",
"O c #33251E",
"+ c #3D2519",
"@ c #3F271A",
"# c #40281A",
"$ c #452A1C",
"% c #462B1C",
"& c #533522",
"* c #563726",
"= c #573827",
"- c #603F2C",
"; c #634028",
": c #62402A",
"> c #6C4631",
", c #764E36",
"< c #784F33",
"1 c #784F37",
"2 c #795037",
"3 c #584D47",
"4 c #82563B",
"5 c #84563B",
"6 c #905E3F",
"7 c #8F6248",
"8 c #926041",
"9 c #976443",
"0 c #9F6B4B",
"q c #826957",
"w c #916850",
"e c #9E765F",
"r c #A16C46",
"t c #AA714A",
"y c #AC734B",
"u c #AD734B",
"i c #B1764D",
"p c #B37D60",
"a c #C38455",
"s c #C68758",
"d c #CB8C60",
"f c #C28D6F",
"g c #C38E73",
"h c #D79A74",
"j c #DC9F7C",
"k c #AE9F95",
"l c #B7A69A",
"z c #486790",
"x c #486790",
"c c #486790",
"v c #CBC2BD",
"b c #486790",
"n c #CFC5BF",
"m c #486790",
"M c #486790",
"N c #D2CBC7",
"B c #DECFC4",
"V c #486790",
"C c #DAD1CB",
"Z c #EADBD4",
"A c #E3E1DF",
"S c #486790",
"D c #486790",
/* pixels */
"DDDDDDDDDDDDDDDDDDDD",
"DDDDDDDDDDDDDDDDDDDD",
"DDDDDDDDDDDDDDDDDDDD",
"DDDDDDDDDDDDDDDDDDDD",
"DDDDDDDDB<:kNDDDDDDD",
"DDDDDDDDZfo%qDDDDDDD",
"DDDDDDSM>wr:&cDDDDDD",
"DDDDDDey9-#lbADDDDDD",
"DDDDSepdy2$XmDDDDDDD",
"DDDDegjsy2$X3DDDDDDD",
"DDDD0haiy,$X3DDDDDDD",
"DDDD6yi84*#.3DDDDDDD",
"DDDDC84,*+O3DDDDDDDD",
"DDDDDVMvxzmDDDDDDDDD",
"DDDDDDDDDDDDDDDDDDDD",
"DDDDDDDDDDDDDDDDDDDD",
"DDDDDDDDDDDDDDDDDDDD",
"                    ",
"                    ",
"                    "
};
