/* XPM */
static char *_2b5820db2c74eac82a3a36e05a35042EgDaW7ilMcZCJAtx[] = {
/* columns rows colors chars-per-pixel */
"20 20 50 1 ",
"  c None",
". c #060606",
"X c #1F1B05",
"o c #131313",
"O c #281C04",
"+ c #362504",
"@ c #342D06",
"# c #493203",
"$ c #4A3202",
"% c #4A3203",
"& c #4A340A",
"* c #513A03",
"= c #563F03",
"- c #4A3712",
"; c #59420B",
": c #635404",
"> c #634D10",
", c #624C1A",
"< c #7B6004",
"1 c #4B483D",
"2 c #5D593D",
"3 c #6A5629",
"4 c #715D29",
"5 c #7C6F2D",
"6 c #806402",
"7 c #826F03",
"8 c #8D7002",
"9 c #9B7E05",
"0 c #8A7922",
"q c #827529",
"w c #8E7F2B",
"e c #806E42",
"r c #80704E",
"t c #A48501",
"y c #A28507",
"u c #B49902",
"i c #A38E1D",
"p c #AE991F",
"a c #9C8922",
"s c #A59122",
"d c #DAB801",
"f c #E6C301",
"g c #E8C501",
"h c #FFD800",
"j c #A49880",
"k c #BEB5A0",
"l c #F2F0E6",
"z c #F5F3EB",
"x c #F8F6F0",
"c c #FFFFFD",
/* pixels */
"                    ",
"      $111111$      ",
"     -ahttttha-     ",
"    &wh922229hw&    ",
"   &ih80:hh:08hi&   ",
"  -why5qXhhXq5yhw-  ",
"  9hh<@oXhhXo@<hhy  ",
"  t7d6psphhpsp6d7t  ",
"  t.u6gffffffg6u.t  ",
"  t.u6X++++++X6u.t  ",
"  t.u6X4z,,z4X6u.t  ",
"  t.u6XjcrrcjX6u.t  ",
"  t.u6Xex33xeX6u.t  ",
"  t.u6X%%%%%$X6u.t  ",
"  t.u6X=k**k=X6u.t  ",
"  t.u6XjcrrcjX6u.t  ",
"  t.u6O>l;;l>X6u.t  ",
"  tsh6XOOOOOOX6hpt  ",
"  %%##############  ",
"                    "
};
