/* XPM */
static char *_4fc6af3302a4f6686db021611d47978M91u5xYuZ3Aa7L8M[] = {
/* columns rows colors chars-per-pixel */
"20 20 51 1 ",
"  c black",
". c #0A0720",
"X c #110B29",
"o c #191329",
"O c #2C2C2C",
"+ c gray23",
"@ c #1B1353",
"# c #261E57",
"$ c #2D2640",
"% c #39354B",
"& c #1F1561",
"* c #211769",
"= c #3D2F68",
"- c #34227C",
"; c #4B3A7C",
": c gray25",
"> c #676767",
", c #291C81",
"< c #452EA5",
"1 c #66529D",
"2 c #644EA6",
"3 c #7965AE",
"4 c #7861BC",
"5 c #8873BF",
"6 c #8F7BBF",
"7 c #8C73CE",
"8 c #8F78CA",
"9 c #A495BF",
"0 c #B791B5",
"q c #486790",
"w c #9B81DE",
"e c #A186E9",
"r c #A78BEE",
"t c #AB8FEF",
"y c #B298EF",
"u c #B699FF",
"i c #BDA2FF",
"p c #CDBBEF",
"a c #D2BAEC",
"s c #C6ADFF",
"d c #D2BBFF",
"f c #C0C0C0",
"g c #DBC7FF",
"h c #E1C6FB",
"j c #F4C2F1",
"k c #F2CCF0",
"l c #EEE1ED",
"z c #EDE4ED",
"x c #486790",
"c c #F1F1F1",
"v c white",
/* pixels */
"xxxxxxxxxxxxxxxxxxxx",
"xxxxxxxxxxxxxxxxxxxx",
"xxxxxxxxqqfxxxxxxxxx",
"xxxxxxxx  +xxxxxxxxx",
"xxxxxxq ,,& xxxxxxxx",
"xxxxx>O .*& xxxxxxxx",
"xxxxq%XXX@#+xxxxxxxx",
"xxxx -<<<X+xxxxxxxxx",
"xxq <X   ;; xxxxxxxx",
"xxq X=;;;73 xxxxxxxx",
"xxq $1444r5 xxxxxxxx",
"xxq uuuuuu5 xxxxxxxx",
"xxq uu5  5e2 qxxxxxx",
"xxq dit55t8o qxxxxxx",
"xxf:gsiuuu8o qxxxxxx",
"xxcvggduuue2 qxxxxxx",
"xxljgg9  55  qxxxxxx",
"xxljggp99yw; qxxxxxx",
"xxzkhha9963;+fxxxxxx",
"xxxxjj0     xxxxxxxx"
};
