/* XPM */
static char *_8566ab60f2940dc85be93b2b42f0d4eJE8LpSu9JvRmrfQ0[] = {
/* columns rows colors chars-per-pixel */
"20 20 53 1 ",
"  c #190E0E",
". c #372210",
"X c #3F2423",
"o c #553712",
"O c #453A36",
"+ c #523E35",
"@ c #401A4A",
"# c #5E2F4E",
"$ c #4E3B49",
"% c #531E71",
"& c #592273",
"* c #4D4545",
"= c #6C5949",
"- c #674E6E",
"; c #6C526F",
": c #794C72",
"> c #726660",
", c #8B705B",
"< c #827D7D",
"1 c #87817C",
"2 c #8C867C",
"3 c #5C1E83",
"4 c #672787",
"5 c #642388",
"6 c #6C249A",
"7 c #7728AA",
"8 c #7A29AD",
"9 c #7D2BB1",
"0 c #755382",
"q c #7D5493",
"w c #802DAF",
"e c #814B9B",
"r c #B37F99",
"t c #9454B0",
"y c #A159AF",
"u c #882DC1",
"i c #8D32C3",
"p c #9532D5",
"a c #9834D8",
"s c #A639EB",
"d c #B43EFF",
"f c #B37CC6",
"g c #BB6CE8",
"h c #C766EB",
"j c #B494B9",
"k c #B6B4B4",
"l c #C5A282",
"z c #FFD4A8",
"x c #BC96CB",
"c c #BF97D0",
"v c #DA8BD6",
"b c #486790",
"n c #FFFFEB",
/* pixels */
"bbbbbbbbbbbbbbbbbbbb",
"bbbbbbbbbbbbbbkkbbbb",
"bbbbbbk<<<<<kk==kbbb",
"bbbbbk0444440*oo<bbb",
"bbbbk0idddddi@oo<bbb",
"bbbk0iddi444ii#.<bbb",
"bbk0iddi@   @i4 <bbb",
"bb<4ddd4     44*kbbb",
"bk0iiid4 +,,+44<bbbb",
"b<4d44di:lzzr4@<bbbb",
"b<4i00idhvvvy#.<bbbb",
"bk00k<&aaaaa&oo<bbbb",
"bbkkk-566999%X=kbbbb",
"bbbb<;cq3999e$<bbbbb",
"bbbb<2nxu88af><bbbbb",
"bbbbk1jgsp7ptO<bbbbb",
"bbbbk0iaad77i@<bbbbb",
"bbbb<@4wsdp64@<bbbbb",
"bbbbk<<04440<<kbbbbb",
"bbbbbbbk<<<kbbbbbbbb"
};
