/* XPM */
static char *_021a242e6a446629da2c65b0623a83fvAXEAjnkOfKDWwjv[] = {
/* columns rows colors chars-per-pixel */
"20 20 67 1 ",
"  c #100A07",
". c #150E0A",
"X c #1E140E",
"o c #523527",
"O c #6D4733",
"+ c #704935",
"@ c #7B5652",
"# c #6A605B",
"$ c #626262",
"% c gray42",
"& c #7E7671",
"* c #CD3F2D",
"= c #885940",
"- c #88634F",
"; c #996448",
": c #A46B4D",
"> c #A86E50",
", c #AA6F51",
"< c #A16D5B",
"1 c #A97154",
"2 c #B17353",
"3 c #B17454",
"4 c #976F74",
"5 c #867B76",
"6 c #B37E63",
"7 c #C8674A",
"8 c #DC6347",
"9 c #D87B59",
"0 c #A58270",
"q c #AF8875",
"w c #C4805C",
"e c #C5815D",
"r c #CA835F",
"t c #CB8E6F",
"y c #D78D66",
"u c #DB8F67",
"i c #DD9068",
"p c #C0927A",
"a c #E2946B",
"s c #E5956C",
"d c #E8976D",
"f c #EB996F",
"g c #F5976D",
"h c #F59A6F",
"j c #EE9B70",
"k c #F19D72",
"l c #F39E73",
"z c #F49F73",
"x c #7C6583",
"c c #7D74B4",
"v c #AC9D96",
"b c #AFAFAF",
"n c #BDB5B2",
"m c gray",
"M c #CA9B83",
"N c #EBB69B",
"B c #808BFF",
"V c #C5C5C5",
"C c #D3CDCA",
"Z c #D8D5D3",
"A c #DDDDDC",
"S c #E7DFDB",
"D c #486790",
"F c gray89",
"G c #E6E6E6",
"H c #486790",
"J c #486790",
/* pixels */
"JJJJAb0555nDHJJJJJJJ",
"JJJV09fkkkq0VJJJJJJJ",
"JJmpzzzzkzzzqmJJJJJJ",
"JJ$yzzzzzzzzi$JJJJJJ",
"JGNkkkzzzzkkzNDJJJJJ",
"Jb6zzkkkkkzzzqbJJJJJ",
"F&3z>>>jf>>>z1&DJJJJ",
"S1=dO osso Od=:DJJJJ",
"Xa3j@B&ryxB@j3sXJJJJ",
"$i1f<c4. 4c<f:i#JJJJ",
"Z+;sf9s:;iekf;+ZJJJJ",
"Hv;fkjkoozzzf;vHJJJJ",
"JJ%uzzhhhhzzi%JJJJJJ",
"JJJMkk8**8zzMJJJJJJJ",
"JJJVqz9779zqVJJJJJJJ",
"JJJJC1zffk1CJJJJJJJJ",
"JJJJGt----tDJJJJJJJJ",
"JJJJJJJJJJJJJJJJJJJJ",
"JJJJJJJJJJJJJJJJJJJJ",
"JJJJJJJJJJJJJJJJJJJJ"
};
