/* XPM */
static char *f852814100de4e4686ebe5e432132e7bkBO55MCYUlOWF3sA[] = {
/* columns rows colors chars-per-pixel */
"20 20 52 1 ",
"  c black",
". c #0A0718",
"X c #0E091F",
"o c #130F1F",
"O c #221B31",
"+ c gray13",
"@ c #2D2D2D",
"# c #2B273A",
"$ c #313131",
"% c #140B41",
"& c #170B4E",
"* c #1C1445",
"= c #190C56",
"- c #2E2055",
"; c #1E0C6E",
": c #271369",
"> c #3A2869",
", c gray33",
"< c #341894",
"1 c #523C8B",
"2 c #503895",
"3 c #654E9E",
"4 c #6449AE",
"5 c #745BB1",
"6 c #7C64B1",
"7 c #7C60BE",
"8 c #785AC3",
"9 c #A77CA6",
"0 c #8868D6",
"q c #8F6DE3",
"w c #9572E9",
"e c #9A77EB",
"r c #9381B1",
"t c #486790",
"y c gray70",
"u c #B4B4B4",
"i c #A281EB",
"p c #A681FF",
"a c #AE8BFF",
"s c #B998FF",
"d c #C7A9E7",
"f c #C1AAEB",
"g c #C7A9FF",
"h c #D9B6FA",
"j c #D2B8FF",
"k c #EEBEEC",
"l c #F0B1ED",
"z c #E9D9E8",
"x c #E8DDE8",
"c c #486790",
"v c gray93",
"b c white",
/* pixels */
"ccccll9     cccccccc",
"ccxkhhdrr63>@ycccccc",
"cczljjfrri0> tcccccc",
"cczljjr  55  tcccccc",
"ccvbjjgpppq2 tcccccc",
"ccu$jsappp7o tcccccc",
"cct gae55e7o tcccccc",
"cct pp5  5q2 tcccccc",
"cct pppppp5 cccccccc",
"cct O1444w5 cccccccc",
"cct X->>>83 cccccccc",
"cct <X   >> cccccccc",
"cccc :<<<X@ccccccccc",
"cccct#XXX%*@cccccccc",
"ccccc,+ .=& cccccccc",
"cccccct ;;& cccccccc",
"cccccccc  @ccccccccc",
"ccccccccttyccccccccc",
"cccccccccccccccccccc",
"cccccccccccccccccccc"
};
