/* XPM */
static char *_9d2a92a60c04e78ab0eac25e181e0e2tF0IcPMlp7GkWte9[] = {
/* columns rows colors chars-per-pixel */
"20 20 111 2 ",
"   c #371815",
".  c #3A1813",
"X  c #3F1A12",
"o  c #3B1914",
"O  c #3E1A17",
"+  c #381618",
"@  c #371A19",
"#  c #371B1B",
"$  c #371B1C",
"%  c #391A19",
"&  c #3F1B19",
"*  c #3C1C1A",
"=  c #3A1D1C",
"-  c #3F1C1C",
";  c #3C1E1C",
":  c #3D1F1C",
">  c #300F22",
",  c #361E24",
"<  c #3D2321",
"1  c #3F2522",
"2  c #392327",
"3  c #3E2822",
"4  c #431A0C",
"5  c #471D0E",
"6  c #421B13",
"7  c #471D12",
"8  c #421B14",
"9  c #431D15",
"0  c #441C15",
"q  c #451C16",
"w  c #491F15",
"e  c #4B1F15",
"r  c #481E16",
"t  c #421E19",
"y  c #451F18",
"u  c #401C1C",
"i  c #4C1F19",
"p  c #4E1D1A",
"a  c #521F1C",
"s  c #531F1C",
"d  c #462013",
"f  c #472014",
"g  c #4A2015",
"h  c #4A2214",
"j  c #492116",
"k  c #4C2015",
"l  c #4E2216",
"z  c #4C2417",
"x  c #472219",
"c  c #45221F",
"v  c #482418",
"b  c #4A2519",
"n  c #4C221C",
"m  c #502017",
"M  c #502416",
"N  c #502417",
"B  c #542716",
"V  c #522917",
"C  c #552816",
"Z  c #572A17",
"A  c #542318",
"S  c #53201C",
"D  c #58251B",
"F  c #63291D",
"G  c #62281E",
"H  c #422923",
"J  c #432A23",
"K  c #462D29",
"L  c #5F2820",
"P  c #5F2921",
"I  c #493433",
"U  c #44373D",
"Y  c #47393C",
"T  c #47393D",
"R  c #493D3E",
"E  c #4B3E3E",
"W  c #4A3E3F",
"Q  c #5B555F",
"!  c #5B616B",
"~  c #607286",
"^  c #627286",
"/  c #647786",
"(  c #667883",
")  c #667987",
"_  c #687B88",
"`  c #697A8B",
"'  c #697E8A",
"]  c #71869B",
"[  c #71899A",
"{  c #708AA0",
"}  c #738BA3",
"|  c #728CA0",
" . c #758EA2",
".. c #738CA5",
"X. c #768EA4",
"o. c #7690A4",
"O. c #7791A5",
"+. c #7891A2",
"@. c #7996A2",
"#. c #7891A5",
"$. c #7A95A5",
"%. c #7996A7",
"&. c #7C97A6",
"*. c #7B98A5",
"=. c #7D98A7",
"-. c #7F9DA7",
";. c #7793A8",
":. c #7B98A8",
">. c #7D98A8",
",. c #7D9BA9",
"<. c #809DA7",
/* pixels */
"> L L L P P O n F F L L L y P L P P P   ",
", r g r q x 0 q f g f g b y r r g g g . ",
"2 f f f f f 0 0 f g f f d q r f f f q . ",
"i X f g f 7 l 6 g f 9 f f d 7 q d d q 6 ",
"i 8 9 l q 6 G r z g y i z z 0 0 n N r t ",
"q X c [ ` 7 N X I +.$.Q q r K !  .Y 6 6 ",
"q 9 &.O.$.] g d X.$.=.=.0 q ! <.+.$.4 t ",
"i O #.=.} =.5 K :.X.-.-.! q  .#.&.} Q = ",
"S J O.| -.| F R  .-.X.X.@.l =.$.X.<.~ x ",
"S J *.*.X.>.F Y $.X.=.*.} N $.$.#.} ` v ",
"a 1 *.$.X.$.d Y #.#.&.=.} v :.*.&.X.) 8 ",
"9 1 $...=...g R } :.O. .@.x :.$.X.&.~ t ",
"y < X.$.X.>.f Y -...%.%.} d ..X.-. .' * ",
"a J $.X.*...g R | *.O.O.+.7 :.:...$.~ x ",
"S J >.$.O.O.G W X.O.:.:.O.b :.=.$.O./ x ",
"i 3 *.:...:.D U -...:.:.[ V ;.$.:...' b ",
"+ % : = : : : O = = # = = % * * = : :   ",
"u v r 9 q f l l 7 q 8 M g 7 l N X A n b ",
"- e l l z g C C h z M C z g z C 7 C C b ",
"- C B a Z M Z C C Z C C C N C M V M Z b "
};
