/* XPM */
static char *_d8e787f19794a23d1c0b0857d7a39ba6zwQ9fiLdDnkGc4b[] = {
/* columns rows colors chars-per-pixel */
"20 20 52 1 ",
"  c #486790",
". c #486790",
"X c #C1C1C1",
"o c #F1F1F1",
"O c #EEE1ED",
"+ c #EDE4ED",
"@ c black",
"# c gray25",
"$ c white",
"% c #F4C2F1",
"& c #F2CCF0",
"* c #452EA5",
"= c #110B29",
"- c #2D2640",
"; c #B699FF",
": c #D2BBFF",
"> c #DBC7FF",
", c #E1C6FB",
"< c #676767",
"1 c #39354B",
"2 c #34227C",
"3 c #3D2F68",
"4 c #66529D",
"5 c #BDA2FF",
"6 c #C6ADFF",
"7 c #2C2C2C",
"8 c #4B3A7C",
"9 c #7861BC",
"0 c #8873BF",
"q c #AB8FEF",
"w c #A495BF",
"e c #CDBBEF",
"r c #D2BAEC",
"t c #B791B5",
"y c #291C81",
"u c #0A0720",
"i c #211769",
"p c #1B1353",
"a c #8C73CE",
"s c #A78BEE",
"d c #B298EF",
"f c #8F7BBF",
"g c #C0C0C0",
"h c gray23",
"j c #1F1561",
"k c #261E57",
"l c #7965AE",
"z c #A186E9",
"x c #8F78CA",
"c c #9B81DE",
"v c #644EA6",
"b c #191329",
/* pixels */
"                    ",
"                    ",
"        ......XoOO+ ",
"        @@@@@@#$%%& ",
"      .@*=-;;:>>>>,%",
"     <12=34;;56>>>,%",
"    .7=*@89;0q5:wert",
"    @@=*@89;@0;;@ww@",
"  .@yu=*@89;@0;;@ww@",
"  .@yip=8as;0q;;0df@",
"  ghjjkh8l00zxxz0cl@",
"    @@h @@@@vbbv@88@",
"            @@@@@@h ",
"            ......g ",
"                    ",
"                    ",
"                    ",
"                    ",
"                    ",
"                    "
};
